<svg xmlns="http://www.w3.org/2000/svg" xmlns:xlink="http://www.w3.org/1999/xlink" id="svg2" viewBox="0 0 309.51 82.05"><defs><style>.cls-1{fill:none;}.cls-2{clip-path:url(#clip-path);}.cls-3{fill:url(#linear-gradient);}.cls-4{clip-path:url(#clip-path-2);}.cls-5{fill:url(#linear-gradient-2);}.cls-6{fill:#100f0d;}.cls-7{fill:#ec058e;}</style><clipPath id="clip-path"><polygon class="cls-1" points="72.73 0 48.67 0 20.34 29.72 20.34 54.48 72.73 0"></polygon></clipPath><linearGradient id="linear-gradient" x1="-289.23" y1="239.68" x2="-288.23" y2="239.68" gradientTransform="matrix(51.21, 0, 0, -51.21, 14830.97, 12301.16)" gradientUnits="userSpaceOnUse"><stop offset="0" stop-color="#ec058e"></stop><stop offset="0.07" stop-color="#ec058e"></stop><stop offset="1" stop-color="#100f0d"></stop></linearGradient><clipPath id="clip-path-2"><polygon class="cls-1" points="74.56 82.05 41.13 32.86 27.53 47.01 50.95 82.05 74.56 82.05"></polygon></clipPath><linearGradient id="linear-gradient-2" x1="-285.44" y1="242.5" x2="-284.44" y2="242.5" gradientTransform="matrix(28.25, 15.02, 15.02, -28.25, 4444.28, 11182.05)" gradientUnits="userSpaceOnUse"><stop offset="0" stop-color="#ec058e"></stop><stop offset="0.13" stop-color="#ec058e"></stop><stop offset="1" stop-color="#100f0d"></stop></linearGradient></defs><g id="g10"><g id="g12"><g id="g14"><g class="cls-2"><g id="g16"><path id="path30" class="cls-3" d="M72.73,0H48.67L20.34,29.72V54.48L72.73,0"></path></g></g></g><g id="g32"><g class="cls-4"><g id="g34"><path id="path48" class="cls-5" d="M74.56,82.05,41.13,32.86,27.53,47,51,82.05H74.56"></path></g></g></g><path id="path50" class="cls-6" d="M20.34,82.05H0V0H20.34V82.05"></path><path id="path52" class="cls-7" d="M110,0h10.16V14.87L134.25,0h12.06L130.58,16.47,147.23,41H135.4L123.58,23.3l-3.44,3.62V41H110V0"></path><path id="path54" class="cls-7" d="M166.57,30.53V27a23,23,0,0,1-4.82,1.55c-3.62.8-5.11,1.72-5.11,4s1.72,3.27,4,3.27c3.5,0,5.91-2.12,5.91-5.28Zm-18.94,2.3c0-6.49,5.16-8.44,11.25-9.24,5.51-.69,7.46-1.26,7.46-3.27s-1.21-3.16-4-3.16c-3,0-4.47,1.32-4.76,3.79H149c.23-5.45,4.42-10.1,13.31-10.1,4.42,0,7.41.8,9.53,2.41,2.53,1.83,3.73,4.7,3.73,8.38v14.8c0,2.36.23,3.68,1,4.19V41h-9.06a8.23,8.23,0,0,1-1-3.27h-.11c-1.73,2.46-4.31,4-8.73,4-5.85,0-10-3.16-10-9"></path><path id="path56" class="cls-7" d="M201,26.34c0-4.93-2-8.49-6.08-8.49-3.73,0-5.92,3.44-5.92,8.38,0,5.11,2.19,8.32,5.8,8.32C198.73,34.55,201,31.16,201,26.34Zm-21.47,0c0-9.18,5.28-15.55,12.86-15.55A9.16,9.16,0,0,1,200.63,15h.17V0h9.35V41h-9v-4h-.11A9.68,9.68,0,0,1,192.42,42c-7.52,0-12.86-5.79-12.86-15.61"></path><path id="path58" class="cls-7" d="M234.91,23.19c-.35-3.5-2.53-5.74-5.57-5.74-3.56,0-5.39,2.24-6,5.74Zm-20.83,3.1c0-8.79,6.14-15.5,15.09-15.5a14.45,14.45,0,0,1,10,3.67c3.5,3.22,5.23,8.33,5.17,14.29H223.26c.57,4,2.75,6.43,6.6,6.43a4.89,4.89,0,0,0,4.88-2.92h9.12a12,12,0,0,1-4.93,6.94,15.58,15.58,0,0,1-9.19,2.7c-9.7,0-15.66-6.72-15.66-15.61"></path><path id="path60" class="cls-7" d="M248.39,11.65h9v4h.17a10.3,10.3,0,0,1,9.07-4.88c6.43,0,10.22,4.59,10.22,11.13V41H267.5V23.82c0-3.1-1.55-5.22-4.59-5.22s-5.16,2.58-5.16,6.19V41h-9.36V11.65"></path><path id="path62" class="cls-7" d="M299.52,30.53V27a23,23,0,0,1-4.82,1.55c-3.62.8-5.11,1.72-5.11,4s1.72,3.27,4,3.27C297.11,35.81,299.52,33.69,299.52,30.53Zm-18.94,2.3c0-6.49,5.17-8.44,11.25-9.24,5.51-.69,7.46-1.26,7.46-3.27s-1.2-3.16-4-3.16c-3,0-4.47,1.32-4.76,3.79H281.9c.23-5.45,4.42-10.1,13.32-10.1,4.41,0,7.4.8,9.52,2.41,2.53,1.83,3.73,4.7,3.73,8.38v14.8c0,2.36.23,3.68,1,4.19V41h-9.07a8.23,8.23,0,0,1-1-3.27h-.11c-1.72,2.46-4.31,4-8.72,4-5.86,0-10.05-3.16-10.05-9"></path></g></g></svg>